<mxfile host="app.diagrams.net" agent="Mozilla/5.0 (Windows NT 10.0; Win64; x64) AppleWebKit/537.36 (KHTML, like Gecko) Chrome/114.0.0.0 Safari/537.36" version="24.7.17">
  <diagram name="Page-1" id="vtc3H7QWTGBQVeGK8XM8">
    <mxGraphModel dx="1474" dy="903" grid="1" gridSize="10" guides="1" tooltips="1" connect="1" arrows="1" fold="1" page="1" pageScale="1" pageWidth="850" pageHeight="1100" math="0" shadow="0">
      <root>
        <mxCell id="0" />
        <mxCell id="1" parent="0" />
        <mxCell id="jlDc-I086ySutYxGqEFr-1" value="&lt;b&gt;AWS&lt;/b&gt;" style="sketch=0;outlineConnect=0;html=1;whiteSpace=wrap;fontSize=12;fontStyle=0;shape=mxgraph.aws4.group;grIcon=mxgraph.aws4.group_aws_cloud;strokeColor=#d6b656;fillColor=#fff2cc;verticalAlign=top;align=left;spacingLeft=30;dashed=0;" parent="1" vertex="1">
          <mxGeometry x="205" y="30" width="770" height="680" as="geometry" />
        </mxCell>
        <mxCell id="KS9WaMUxeq6iMbUElf53-8" value="" style="rounded=1;whiteSpace=wrap;html=1;fillColor=#dae8fc;strokeColor=#6c8ebf;arcSize=5;" parent="1" vertex="1">
          <mxGeometry x="595" y="71.43" width="370" height="248.57" as="geometry" />
        </mxCell>
        <mxCell id="jlDc-I086ySutYxGqEFr-2" value="" style="sketch=0;points=[[0,0,0],[0.25,0,0],[0.5,0,0],[0.75,0,0],[1,0,0],[0,1,0],[0.25,1,0],[0.5,1,0],[0.75,1,0],[1,1,0],[0,0.25,0],[0,0.5,0],[0,0.75,0],[1,0.25,0],[1,0.5,0],[1,0.75,0]];outlineConnect=0;fontColor=#232F3E;gradientColor=#F78E04;gradientDirection=north;fillColor=#D05C17;strokeColor=#ffffff;dashed=0;verticalLabelPosition=bottom;verticalAlign=top;align=center;html=1;fontSize=12;fontStyle=0;aspect=fixed;shape=mxgraph.aws4.resourceIcon;resIcon=mxgraph.aws4.lambda;" parent="1" vertex="1">
          <mxGeometry x="759.51" y="106.43" width="78" height="78" as="geometry" />
        </mxCell>
        <mxCell id="jlDc-I086ySutYxGqEFr-3" value="&lt;font style=&quot;font-size: 14px;&quot;&gt;&lt;span&gt;AWS Lambda&lt;/span&gt;&lt;/font&gt;&lt;div&gt;&lt;font style=&quot;font-size: 14px;&quot;&gt;&lt;span&gt;CRUD recipes&lt;/span&gt;&lt;/font&gt;&lt;/div&gt;" style="text;html=1;strokeColor=none;fillColor=none;align=center;verticalAlign=middle;whiteSpace=wrap;rounded=0;fontStyle=1" parent="1" vertex="1">
          <mxGeometry x="748.01" y="72" width="101" height="36.43" as="geometry" />
        </mxCell>
        <mxCell id="jlDc-I086ySutYxGqEFr-11" style="edgeStyle=orthogonalEdgeStyle;rounded=0;orthogonalLoop=1;jettySize=auto;html=1;exitX=0.5;exitY=0;exitDx=0;exitDy=0;entryX=0.5;entryY=1;entryDx=0;entryDy=0;entryPerimeter=0;" parent="1" source="jlDc-I086ySutYxGqEFr-4" target="jlDc-I086ySutYxGqEFr-2" edge="1">
          <mxGeometry relative="1" as="geometry" />
        </mxCell>
        <mxCell id="jlDc-I086ySutYxGqEFr-4" value="Mangum-Layer" style="rounded=1;whiteSpace=wrap;html=1;fillColor=#d5e8d4;strokeColor=#82b366;fontStyle=1" parent="1" vertex="1">
          <mxGeometry x="745.38" y="208.43" width="101.5" height="30" as="geometry" />
        </mxCell>
        <mxCell id="jlDc-I086ySutYxGqEFr-12" style="edgeStyle=orthogonalEdgeStyle;rounded=0;orthogonalLoop=1;jettySize=auto;html=1;entryX=0;entryY=0.5;entryDx=0;entryDy=0;entryPerimeter=0;exitX=1.003;exitY=0.294;exitDx=0;exitDy=0;exitPerimeter=0;" parent="1" source="KS9WaMUxeq6iMbUElf53-6" target="3UMmtsEZR_l9ThYTv81G-3" edge="1">
          <mxGeometry relative="1" as="geometry">
            <mxPoint x="656.5" y="150.43" as="targetPoint" />
            <mxPoint x="555" y="145" as="sourcePoint" />
          </mxGeometry>
        </mxCell>
        <mxCell id="jlDc-I086ySutYxGqEFr-13" value="" style="shape=image;verticalLabelPosition=bottom;labelBackgroundColor=default;verticalAlign=top;aspect=fixed;imageAspect=0;image=https://fastapi.tiangolo.com/img/logo-margin/logo-teal.png;" parent="1" vertex="1">
          <mxGeometry x="733.75" y="235.11" width="124.75" height="45" as="geometry" />
        </mxCell>
        <mxCell id="jlDc-I086ySutYxGqEFr-15" value="&lt;font style=&quot;font-size: 14px;&quot;&gt;&lt;span&gt;Users&lt;/span&gt;&lt;/font&gt;" style="text;html=1;strokeColor=none;fillColor=none;align=center;verticalAlign=middle;whiteSpace=wrap;rounded=0;fontStyle=1" parent="1" vertex="1">
          <mxGeometry x="42.25" y="170" width="47.5" height="29.61" as="geometry" />
        </mxCell>
        <mxCell id="3UMmtsEZR_l9ThYTv81G-1" value="" style="sketch=0;points=[[0,0,0],[0.25,0,0],[0.5,0,0],[0.75,0,0],[1,0,0],[0,1,0],[0.25,1,0],[0.5,1,0],[0.75,1,0],[1,1,0],[0,0.25,0],[0,0.5,0],[0,0.75,0],[1,0.25,0],[1,0.5,0],[1,0.75,0]];outlineConnect=0;fontColor=#232F3E;fillColor=#DD344C;strokeColor=#ffffff;dashed=0;verticalLabelPosition=bottom;verticalAlign=top;align=center;html=1;fontSize=12;fontStyle=0;aspect=fixed;shape=mxgraph.aws4.resourceIcon;resIcon=mxgraph.aws4.cognito;" parent="1" vertex="1">
          <mxGeometry x="618.5" y="220.04000000000002" width="78" height="78" as="geometry" />
        </mxCell>
        <mxCell id="3UMmtsEZR_l9ThYTv81G-2" value="&lt;font style=&quot;font-size: 14px;&quot;&gt;&lt;span&gt;Amazon Cognito&lt;/span&gt;&lt;/font&gt;" style="text;html=1;strokeColor=none;fillColor=none;align=center;verticalAlign=middle;whiteSpace=wrap;rounded=0;fontStyle=1" parent="1" vertex="1">
          <mxGeometry x="604.25" y="296.5" width="125" height="23.5" as="geometry" />
        </mxCell>
        <mxCell id="3UMmtsEZR_l9ThYTv81G-3" value="" style="sketch=0;points=[[0,0,0],[0.25,0,0],[0.5,0,0],[0.75,0,0],[1,0,0],[0,1,0],[0.25,1,0],[0.5,1,0],[0.75,1,0],[1,1,0],[0,0.25,0],[0,0.5,0],[0,0.75,0],[1,0.25,0],[1,0.5,0],[1,0.75,0]];outlineConnect=0;fontColor=#232F3E;fillColor=#E7157B;strokeColor=#ffffff;dashed=0;verticalLabelPosition=bottom;verticalAlign=top;align=center;html=1;fontSize=12;fontStyle=0;aspect=fixed;shape=mxgraph.aws4.resourceIcon;resIcon=mxgraph.aws4.api_gateway;" parent="1" vertex="1">
          <mxGeometry x="617.5" y="106.43" width="78" height="78" as="geometry" />
        </mxCell>
        <mxCell id="3UMmtsEZR_l9ThYTv81G-4" value="&lt;font style=&quot;font-size: 14px;&quot;&gt;&lt;span&gt;API Gateway&lt;/span&gt;&lt;/font&gt;&lt;div&gt;&lt;font style=&quot;font-size: 14px;&quot;&gt;&lt;span&gt;CRUD recipes&lt;/span&gt;&lt;/font&gt;&lt;/div&gt;" style="text;html=1;strokeColor=none;fillColor=none;align=center;verticalAlign=middle;whiteSpace=wrap;rounded=0;fontStyle=1" parent="1" vertex="1">
          <mxGeometry x="604.25" y="75.43" width="106.5" height="29.57" as="geometry" />
        </mxCell>
        <mxCell id="3UMmtsEZR_l9ThYTv81G-6" value="&lt;font style=&quot;font-size: 14px;&quot;&gt;&lt;span&gt;DynamoDB&lt;/span&gt;&lt;/font&gt;&lt;div&gt;&lt;font style=&quot;font-size: 14px;&quot;&gt;&lt;span&gt;recipes&lt;/span&gt;&lt;/font&gt;&lt;/div&gt;" style="text;html=1;strokeColor=none;fillColor=none;align=center;verticalAlign=middle;whiteSpace=wrap;rounded=0;fontStyle=1" parent="1" vertex="1">
          <mxGeometry x="867" y="268.9" width="86.5" height="42.57" as="geometry" />
        </mxCell>
        <mxCell id="3UMmtsEZR_l9ThYTv81G-7" style="edgeStyle=orthogonalEdgeStyle;rounded=0;orthogonalLoop=1;jettySize=auto;html=1;entryX=0;entryY=0.5;entryDx=0;entryDy=0;entryPerimeter=0;" parent="1" source="3UMmtsEZR_l9ThYTv81G-3" target="jlDc-I086ySutYxGqEFr-2" edge="1">
          <mxGeometry relative="1" as="geometry" />
        </mxCell>
        <mxCell id="3UMmtsEZR_l9ThYTv81G-10" value="&lt;font style=&quot;font-size: 14px;&quot;&gt;&lt;span&gt;Verify&lt;/span&gt;&lt;/font&gt;&lt;div&gt;&lt;font style=&quot;font-size: 14px;&quot;&gt;&lt;span&gt;Token&lt;br&gt;&lt;/span&gt;&lt;/font&gt;&lt;/div&gt;" style="text;html=1;strokeColor=none;fillColor=none;align=center;verticalAlign=middle;whiteSpace=wrap;rounded=0;fontStyle=0;fontColor=#0000FF;" parent="1" vertex="1">
          <mxGeometry x="641.5" y="184.43" width="78.5" height="40" as="geometry" />
        </mxCell>
        <mxCell id="3UMmtsEZR_l9ThYTv81G-16" value="&lt;font style=&quot;font-size: 16px;&quot;&gt;&lt;b&gt;1&lt;/b&gt;&lt;/font&gt;" style="ellipse;whiteSpace=wrap;html=1;aspect=fixed;fillColor=#67AB9F;strokeColor=#000000;" parent="1" vertex="1">
          <mxGeometry x="558.5" y="238.43" width="25" height="25" as="geometry" />
        </mxCell>
        <mxCell id="3UMmtsEZR_l9ThYTv81G-17" value="&lt;font style=&quot;font-size: 16px;&quot;&gt;&lt;b&gt;2&lt;/b&gt;&lt;/font&gt;" style="ellipse;whiteSpace=wrap;html=1;aspect=fixed;fillColor=#67AB9F;strokeColor=#000000;" parent="1" vertex="1">
          <mxGeometry x="559.75" y="108.43" width="25" height="25" as="geometry" />
        </mxCell>
        <mxCell id="3UMmtsEZR_l9ThYTv81G-18" value="&lt;font style=&quot;font-size: 16px;&quot;&gt;&lt;b&gt;3&lt;/b&gt;&lt;/font&gt;" style="ellipse;whiteSpace=wrap;html=1;aspect=fixed;fillColor=#67AB9F;strokeColor=#000000;" parent="1" vertex="1">
          <mxGeometry x="607.5" y="192.11" width="25" height="25" as="geometry" />
        </mxCell>
        <mxCell id="3UMmtsEZR_l9ThYTv81G-20" style="edgeStyle=orthogonalEdgeStyle;rounded=0;orthogonalLoop=1;jettySize=auto;html=1;entryX=0.5;entryY=0;entryDx=0;entryDy=0;entryPerimeter=0;startArrow=classic;startFill=1;exitX=0.5;exitY=1;exitDx=0;exitDy=0;exitPerimeter=0;" parent="1" source="3UMmtsEZR_l9ThYTv81G-3" target="3UMmtsEZR_l9ThYTv81G-1" edge="1">
          <mxGeometry relative="1" as="geometry">
            <mxPoint x="656.75" y="191.43" as="sourcePoint" />
          </mxGeometry>
        </mxCell>
        <mxCell id="3UMmtsEZR_l9ThYTv81G-21" value="&lt;font style=&quot;font-size: 16px;&quot;&gt;&lt;b&gt;4&lt;/b&gt;&lt;/font&gt;" style="ellipse;whiteSpace=wrap;html=1;aspect=fixed;fillColor=#67AB9F;strokeColor=#000000;" parent="1" vertex="1">
          <mxGeometry x="713.5" y="113.93" width="25" height="25" as="geometry" />
        </mxCell>
        <mxCell id="KS9WaMUxeq6iMbUElf53-2" value="" style="outlineConnect=0;dashed=0;verticalLabelPosition=bottom;verticalAlign=top;align=center;html=1;shape=mxgraph.aws3.users;fillColor=#D2D3D3;gradientColor=none;" parent="1" vertex="1">
          <mxGeometry x="35" y="118.43" width="60" height="55" as="geometry" />
        </mxCell>
        <mxCell id="KS9WaMUxeq6iMbUElf53-6" value="" style="rounded=1;whiteSpace=wrap;html=1;fillColor=#f8cecc;strokeColor=#b85450;arcSize=5;" parent="1" vertex="1">
          <mxGeometry x="215" y="71.43" width="330" height="248.57" as="geometry" />
        </mxCell>
        <mxCell id="KS9WaMUxeq6iMbUElf53-3" value="" style="sketch=0;points=[[0,0,0],[0.25,0,0],[0.5,0,0],[0.75,0,0],[1,0,0],[0,1,0],[0.25,1,0],[0.5,1,0],[0.75,1,0],[1,1,0],[0,0.25,0],[0,0.5,0],[0,0.75,0],[1,0.25,0],[1,0.5,0],[1,0.75,0]];outlineConnect=0;fontColor=#232F3E;fillColor=#7AA116;strokeColor=#ffffff;dashed=0;verticalLabelPosition=bottom;verticalAlign=top;align=center;html=1;fontSize=12;fontStyle=0;aspect=fixed;shape=mxgraph.aws4.resourceIcon;resIcon=mxgraph.aws4.s3;" parent="1" vertex="1">
          <mxGeometry x="456.75" y="106.43" width="78" height="78" as="geometry" />
        </mxCell>
        <mxCell id="KS9WaMUxeq6iMbUElf53-7" value="&lt;font style=&quot;font-size: 14px;&quot;&gt;&lt;span&gt;S3 Static&lt;/span&gt;&lt;/font&gt;&lt;div&gt;&lt;font style=&quot;font-size: 14px;&quot;&gt;&lt;span&gt;Website&lt;/span&gt;&lt;/font&gt;&lt;/div&gt;" style="text;html=1;strokeColor=none;fillColor=none;align=center;verticalAlign=middle;whiteSpace=wrap;rounded=0;fontStyle=1" parent="1" vertex="1">
          <mxGeometry x="444" y="77" width="101" height="27.43" as="geometry" />
        </mxCell>
        <mxCell id="KS9WaMUxeq6iMbUElf53-11" value="FRONTEND WEB UI" style="text;html=1;align=center;verticalAlign=middle;whiteSpace=wrap;rounded=0;fontSize=18;fontStyle=1" parent="1" vertex="1">
          <mxGeometry x="289.63" y="38.93" width="188.75" height="25" as="geometry" />
        </mxCell>
        <mxCell id="KS9WaMUxeq6iMbUElf53-12" value="BACKEND" style="text;html=1;align=center;verticalAlign=middle;whiteSpace=wrap;rounded=0;fontSize=18;fontStyle=1" parent="1" vertex="1">
          <mxGeometry x="719.5" y="38.93" width="121" height="25" as="geometry" />
        </mxCell>
        <mxCell id="KS9WaMUxeq6iMbUElf53-14" style="edgeStyle=orthogonalEdgeStyle;rounded=0;orthogonalLoop=1;jettySize=auto;html=1;exitX=1;exitY=0.5;exitDx=0;exitDy=0;exitPerimeter=0;entryX=0;entryY=0.5;entryDx=0;entryDy=0;entryPerimeter=0;" parent="1" source="KS9WaMUxeq6iMbUElf53-2" target="mpX9dRcZIXkjqXWcQL34-2" edge="1">
          <mxGeometry relative="1" as="geometry">
            <mxPoint x="204" y="144" as="targetPoint" />
          </mxGeometry>
        </mxCell>
        <mxCell id="mpX9dRcZIXkjqXWcQL34-1" value="" style="sketch=0;points=[[0,0,0],[0.25,0,0],[0.5,0,0],[0.75,0,0],[1,0,0],[0,1,0],[0.25,1,0],[0.5,1,0],[0.75,1,0],[1,1,0],[0,0.25,0],[0,0.5,0],[0,0.75,0],[1,0.25,0],[1,0.5,0],[1,0.75,0]];outlineConnect=0;fontColor=#232F3E;fillColor=#8C4FFF;strokeColor=#ffffff;dashed=0;verticalLabelPosition=bottom;verticalAlign=top;align=center;html=1;fontSize=12;fontStyle=0;aspect=fixed;shape=mxgraph.aws4.resourceIcon;resIcon=mxgraph.aws4.cloudfront;" parent="1" vertex="1">
          <mxGeometry x="345" y="106.43" width="78" height="78" as="geometry" />
        </mxCell>
        <mxCell id="mpX9dRcZIXkjqXWcQL34-2" value="" style="sketch=0;points=[[0,0,0],[0.25,0,0],[0.5,0,0],[0.75,0,0],[1,0,0],[0,1,0],[0.25,1,0],[0.5,1,0],[0.75,1,0],[1,1,0],[0,0.25,0],[0,0.5,0],[0,0.75,0],[1,0.25,0],[1,0.5,0],[1,0.75,0]];outlineConnect=0;fontColor=#232F3E;fillColor=#8C4FFF;strokeColor=#ffffff;dashed=0;verticalLabelPosition=bottom;verticalAlign=top;align=center;html=1;fontSize=12;fontStyle=0;aspect=fixed;shape=mxgraph.aws4.resourceIcon;resIcon=mxgraph.aws4.route_53;" parent="1" vertex="1">
          <mxGeometry x="235" y="107.43" width="78" height="78" as="geometry" />
        </mxCell>
        <mxCell id="mpX9dRcZIXkjqXWcQL34-3" value="" style="sketch=0;points=[[0,0,0],[0.25,0,0],[0.5,0,0],[0.75,0,0],[1,0,0],[0,1,0],[0.25,1,0],[0.5,1,0],[0.75,1,0],[1,1,0],[0,0.25,0],[0,0.5,0],[0,0.75,0],[1,0.25,0],[1,0.5,0],[1,0.75,0]];outlineConnect=0;fontColor=#232F3E;fillColor=#DD344C;strokeColor=#ffffff;dashed=0;verticalLabelPosition=bottom;verticalAlign=top;align=center;html=1;fontSize=12;fontStyle=0;aspect=fixed;shape=mxgraph.aws4.resourceIcon;resIcon=mxgraph.aws4.certificate_manager_3;" parent="1" vertex="1">
          <mxGeometry x="301.5" y="220.04000000000002" width="78" height="78" as="geometry" />
        </mxCell>
        <mxCell id="mpX9dRcZIXkjqXWcQL34-5" value="&lt;font style=&quot;font-size: 14px;&quot;&gt;&lt;span&gt;CloudFront&lt;/span&gt;&lt;/font&gt;&lt;div&gt;&lt;font style=&quot;font-size: 14px;&quot;&gt;&lt;span&gt;Distribution&lt;/span&gt;&lt;/font&gt;&lt;/div&gt;" style="text;html=1;strokeColor=none;fillColor=none;align=center;verticalAlign=middle;whiteSpace=wrap;rounded=0;fontStyle=1" parent="1" vertex="1">
          <mxGeometry x="333.5" y="78" width="101" height="26.43" as="geometry" />
        </mxCell>
        <mxCell id="mpX9dRcZIXkjqXWcQL34-7" value="&lt;span style=&quot;font-size: 14px;&quot;&gt;Route 53&lt;/span&gt;" style="text;html=1;strokeColor=none;fillColor=none;align=center;verticalAlign=middle;whiteSpace=wrap;rounded=0;fontStyle=1" parent="1" vertex="1">
          <mxGeometry x="223.5" y="80" width="101" height="26.43" as="geometry" />
        </mxCell>
        <mxCell id="mpX9dRcZIXkjqXWcQL34-9" value="&lt;span style=&quot;font-size: 14px;&quot;&gt;ACM&lt;/span&gt;" style="text;html=1;strokeColor=none;fillColor=none;align=center;verticalAlign=middle;whiteSpace=wrap;rounded=0;fontStyle=1" parent="1" vertex="1">
          <mxGeometry x="315.5" y="298.04" width="50" height="23.39" as="geometry" />
        </mxCell>
        <mxCell id="mpX9dRcZIXkjqXWcQL34-10" value="" style="sketch=0;points=[[0,0,0],[0.25,0,0],[0.5,0,0],[0.75,0,0],[1,0,0],[0,1,0],[0.25,1,0],[0.5,1,0],[0.75,1,0],[1,1,0],[0,0.25,0],[0,0.5,0],[0,0.75,0],[1,0.25,0],[1,0.5,0],[1,0.75,0]];outlineConnect=0;fontColor=#232F3E;fillColor=#DD344C;strokeColor=#ffffff;dashed=0;verticalLabelPosition=bottom;verticalAlign=top;align=center;html=1;fontSize=12;fontStyle=0;aspect=fixed;shape=mxgraph.aws4.resourceIcon;resIcon=mxgraph.aws4.waf;" parent="1" vertex="1">
          <mxGeometry x="388.5" y="220.04000000000002" width="78" height="78" as="geometry" />
        </mxCell>
        <mxCell id="mpX9dRcZIXkjqXWcQL34-11" value="&lt;span style=&quot;font-size: 14px;&quot;&gt;WAF&lt;/span&gt;" style="text;html=1;strokeColor=none;fillColor=none;align=center;verticalAlign=middle;whiteSpace=wrap;rounded=0;fontStyle=1" parent="1" vertex="1">
          <mxGeometry x="402.5" y="298.04" width="50" height="23.39" as="geometry" />
        </mxCell>
        <mxCell id="mpX9dRcZIXkjqXWcQL34-12" style="edgeStyle=orthogonalEdgeStyle;rounded=0;orthogonalLoop=1;jettySize=auto;html=1;exitX=1;exitY=0.5;exitDx=0;exitDy=0;exitPerimeter=0;entryX=0;entryY=0.5;entryDx=0;entryDy=0;entryPerimeter=0;" parent="1" source="mpX9dRcZIXkjqXWcQL34-2" target="mpX9dRcZIXkjqXWcQL34-1" edge="1">
          <mxGeometry relative="1" as="geometry" />
        </mxCell>
        <mxCell id="mpX9dRcZIXkjqXWcQL34-13" style="edgeStyle=orthogonalEdgeStyle;rounded=0;orthogonalLoop=1;jettySize=auto;html=1;exitX=1;exitY=0.5;exitDx=0;exitDy=0;exitPerimeter=0;entryX=0;entryY=0.5;entryDx=0;entryDy=0;entryPerimeter=0;" parent="1" source="mpX9dRcZIXkjqXWcQL34-1" target="KS9WaMUxeq6iMbUElf53-3" edge="1">
          <mxGeometry relative="1" as="geometry" />
        </mxCell>
        <mxCell id="mpX9dRcZIXkjqXWcQL34-14" style="edgeStyle=orthogonalEdgeStyle;rounded=0;orthogonalLoop=1;jettySize=auto;html=1;exitX=0.5;exitY=0;exitDx=0;exitDy=0;exitPerimeter=0;entryX=0.25;entryY=1;entryDx=0;entryDy=0;entryPerimeter=0;" parent="1" source="mpX9dRcZIXkjqXWcQL34-3" target="mpX9dRcZIXkjqXWcQL34-1" edge="1">
          <mxGeometry relative="1" as="geometry" />
        </mxCell>
        <mxCell id="mpX9dRcZIXkjqXWcQL34-15" style="edgeStyle=orthogonalEdgeStyle;rounded=0;orthogonalLoop=1;jettySize=auto;html=1;exitX=0.5;exitY=0;exitDx=0;exitDy=0;exitPerimeter=0;entryX=0.75;entryY=1;entryDx=0;entryDy=0;entryPerimeter=0;" parent="1" source="mpX9dRcZIXkjqXWcQL34-10" target="mpX9dRcZIXkjqXWcQL34-1" edge="1">
          <mxGeometry relative="1" as="geometry" />
        </mxCell>
        <mxCell id="3UMmtsEZR_l9ThYTv81G-13" style="rounded=0;orthogonalLoop=1;jettySize=auto;html=1;exitX=0;exitY=0.5;exitDx=0;exitDy=0;exitPerimeter=0;entryX=0.5;entryY=1;entryDx=0;entryDy=0;startArrow=classic;startFill=1;endArrow=none;endFill=0;entryPerimeter=0;" parent="1" source="3UMmtsEZR_l9ThYTv81G-1" target="KS9WaMUxeq6iMbUElf53-3" edge="1">
          <mxGeometry relative="1" as="geometry">
            <mxPoint x="583.25" y="371.43" as="sourcePoint" />
            <mxPoint x="578.44921875" y="176.93" as="targetPoint" />
          </mxGeometry>
        </mxCell>
        <mxCell id="3UMmtsEZR_l9ThYTv81G-12" style="rounded=0;orthogonalLoop=1;jettySize=auto;html=1;exitX=0.75;exitY=1;exitDx=0;exitDy=0;exitPerimeter=0;entryX=0;entryY=0.25;entryDx=0;entryDy=0;entryPerimeter=0;startArrow=classic;startFill=1;endArrow=none;endFill=0;" parent="1" source="KS9WaMUxeq6iMbUElf53-3" target="3UMmtsEZR_l9ThYTv81G-1" edge="1">
          <mxGeometry relative="1" as="geometry">
            <mxPoint x="592.5" y="160.86500000000007" as="sourcePoint" />
          </mxGeometry>
        </mxCell>
        <mxCell id="B0vA6GxIxDmD3SuJ-wSr-1" value="" style="rounded=1;whiteSpace=wrap;html=1;fillColor=#b0e3e6;strokeColor=#0e8088;arcSize=5;" parent="1" vertex="1">
          <mxGeometry x="215" y="351.43" width="750" height="348.57" as="geometry" />
        </mxCell>
        <mxCell id="R7f8UiEShfywm73SlZXB-47" value="" style="rounded=1;whiteSpace=wrap;html=1;fillColor=#d0cee2;strokeColor=#56517e;arcSize=5;" parent="1" vertex="1">
          <mxGeometry x="583.5" y="370" width="370" height="280" as="geometry" />
        </mxCell>
        <mxCell id="B0vA6GxIxDmD3SuJ-wSr-3" value="&lt;b&gt;META&lt;/b&gt;" style="sketch=0;outlineConnect=0;html=1;whiteSpace=wrap;fontSize=12;fontStyle=0;shape=mxgraph.aws4.group;grIcon=mxgraph.aws4.group_aws_cloud;strokeColor=#6c8ebf;fillColor=#dae8fc;verticalAlign=top;align=left;spacingLeft=30;dashed=0;" parent="1" vertex="1">
          <mxGeometry x="10" y="330" width="185" height="290" as="geometry" />
        </mxCell>
        <mxCell id="R7f8UiEShfywm73SlZXB-1" value="" style="sketch=0;points=[[0,0,0],[0.25,0,0],[0.5,0,0],[0.75,0,0],[1,0,0],[0,1,0],[0.25,1,0],[0.5,1,0],[0.75,1,0],[1,1,0],[0,0.25,0],[0,0.5,0],[0,0.75,0],[1,0.25,0],[1,0.5,0],[1,0.75,0]];outlineConnect=0;fontColor=#232F3E;fillColor=#01A88D;strokeColor=#ffffff;dashed=0;verticalLabelPosition=bottom;verticalAlign=top;align=center;html=1;fontSize=12;fontStyle=0;aspect=fixed;shape=mxgraph.aws4.resourceIcon;resIcon=mxgraph.aws4.bedrock;" parent="1" vertex="1">
          <mxGeometry x="739.37" y="529.3900000000002" width="78" height="78" as="geometry" />
        </mxCell>
        <mxCell id="R7f8UiEShfywm73SlZXB-2" value="" style="sketch=0;points=[[0,0,0],[0.25,0,0],[0.5,0,0],[0.75,0,0],[1,0,0],[0,1,0],[0.25,1,0],[0.5,1,0],[0.75,1,0],[1,1,0],[0,0.25,0],[0,0.5,0],[0,0.75,0],[1,0.25,0],[1,0.5,0],[1,0.75,0]];outlineConnect=0;fontColor=#232F3E;fillColor=#8C4FFF;strokeColor=#ffffff;dashed=0;verticalLabelPosition=bottom;verticalAlign=top;align=center;html=1;fontSize=12;fontStyle=0;aspect=fixed;shape=mxgraph.aws4.resourceIcon;resIcon=mxgraph.aws4.elasticsearch_service;" parent="1" vertex="1">
          <mxGeometry x="853.87" y="529.3900000000002" width="78" height="78" as="geometry" />
        </mxCell>
        <mxCell id="R7f8UiEShfywm73SlZXB-63" style="edgeStyle=orthogonalEdgeStyle;rounded=0;orthogonalLoop=1;jettySize=auto;html=1;exitX=0.5;exitY=0;exitDx=0;exitDy=0;exitPerimeter=0;entryX=0.499;entryY=0.968;entryDx=0;entryDy=0;entryPerimeter=0;" parent="1" source="R7f8UiEShfywm73SlZXB-3" target="3UMmtsEZR_l9ThYTv81G-6" edge="1">
          <mxGeometry relative="1" as="geometry">
            <Array as="points">
              <mxPoint x="893" y="340" />
              <mxPoint x="910" y="340" />
            </Array>
          </mxGeometry>
        </mxCell>
        <mxCell id="R7f8UiEShfywm73SlZXB-3" value="" style="sketch=0;points=[[0,0,0],[0.25,0,0],[0.5,0,0],[0.75,0,0],[1,0,0],[0,1,0],[0.25,1,0],[0.5,1,0],[0.75,1,0],[1,1,0],[0,0.25,0],[0,0.5,0],[0,0.75,0],[1,0.25,0],[1,0.5,0],[1,0.75,0]];outlineConnect=0;fontColor=#232F3E;gradientColor=#F78E04;gradientDirection=north;fillColor=#D05C17;strokeColor=#ffffff;dashed=0;verticalLabelPosition=bottom;verticalAlign=top;align=center;html=1;fontSize=12;fontStyle=0;aspect=fixed;shape=mxgraph.aws4.resourceIcon;resIcon=mxgraph.aws4.lambda;" parent="1" vertex="1">
          <mxGeometry x="853.87" y="391.65000000000003" width="78" height="78" as="geometry" />
        </mxCell>
        <mxCell id="R7f8UiEShfywm73SlZXB-4" value="&lt;span style=&quot;font-size: 14px;&quot;&gt;Lambda&lt;/span&gt;&lt;div&gt;&lt;span style=&quot;font-size: 14px;&quot;&gt;Action Group&lt;/span&gt;&lt;/div&gt;&lt;div&gt;&lt;span style=&quot;font-size: 14px;&quot;&gt;fetch recipe&lt;/span&gt;&lt;/div&gt;" style="text;html=1;strokeColor=none;fillColor=none;align=center;verticalAlign=middle;whiteSpace=wrap;rounded=0;fontStyle=1" parent="1" vertex="1">
          <mxGeometry x="842.37" y="474.09000000000015" width="101" height="46.93" as="geometry" />
        </mxCell>
        <mxCell id="R7f8UiEShfywm73SlZXB-5" value="" style="sketch=0;points=[[0,0,0],[0.25,0,0],[0.5,0,0],[0.75,0,0],[1,0,0],[0,1,0],[0.25,1,0],[0.5,1,0],[0.75,1,0],[1,1,0],[0,0.25,0],[0,0.5,0],[0,0.75,0],[1,0.25,0],[1,0.5,0],[1,0.75,0]];outlineConnect=0;fontColor=#232F3E;fillColor=#7AA116;strokeColor=#ffffff;dashed=0;verticalLabelPosition=bottom;verticalAlign=top;align=center;html=1;fontSize=12;fontStyle=0;aspect=fixed;shape=mxgraph.aws4.resourceIcon;resIcon=mxgraph.aws4.s3;" parent="1" vertex="1">
          <mxGeometry x="616.88" y="529.39" width="78" height="78" as="geometry" />
        </mxCell>
        <mxCell id="R7f8UiEShfywm73SlZXB-6" value="&lt;div&gt;&lt;span style=&quot;background-color: initial; font-size: 14px;&quot;&gt;S3 Public&amp;nbsp;&lt;/span&gt;&lt;span style=&quot;background-color: initial; font-size: 14px;&quot;&gt;Recipes&lt;/span&gt;&lt;/div&gt;" style="text;html=1;strokeColor=none;fillColor=none;align=center;verticalAlign=middle;whiteSpace=wrap;rounded=0;fontStyle=1" parent="1" vertex="1">
          <mxGeometry x="593.63" y="607.67" width="131.25" height="27.43" as="geometry" />
        </mxCell>
        <mxCell id="R7f8UiEShfywm73SlZXB-7" value="&lt;span style=&quot;font-size: 14px;&quot;&gt;Bedrock KB&lt;/span&gt;" style="text;html=1;strokeColor=none;fillColor=none;align=center;verticalAlign=middle;whiteSpace=wrap;rounded=0;fontStyle=1" parent="1" vertex="1">
          <mxGeometry x="728.13" y="607.6700000000001" width="101" height="27.43" as="geometry" />
        </mxCell>
        <mxCell id="R7f8UiEShfywm73SlZXB-8" value="" style="sketch=0;points=[[0,0,0],[0.25,0,0],[0.5,0,0],[0.75,0,0],[1,0,0],[0,1,0],[0.25,1,0],[0.5,1,0],[0.75,1,0],[1,1,0],[0,0.25,0],[0,0.5,0],[0,0.75,0],[1,0.25,0],[1,0.5,0],[1,0.75,0]];outlineConnect=0;fontColor=#232F3E;fillColor=#E7157B;strokeColor=#ffffff;dashed=0;verticalLabelPosition=bottom;verticalAlign=top;align=center;html=1;fontSize=12;fontStyle=0;aspect=fixed;shape=mxgraph.aws4.resourceIcon;resIcon=mxgraph.aws4.api_gateway;" parent="1" vertex="1">
          <mxGeometry x="235.25" y="371.72" width="78" height="78" as="geometry" />
        </mxCell>
        <mxCell id="R7f8UiEShfywm73SlZXB-9" value="&lt;font style=&quot;font-size: 14px;&quot;&gt;&lt;span&gt;API Gateway&lt;/span&gt;&lt;/font&gt;&lt;div&gt;&lt;font style=&quot;font-size: 14px;&quot;&gt;&lt;span&gt;WebHook&lt;/span&gt;&lt;/font&gt;&lt;/div&gt;" style="text;html=1;strokeColor=none;fillColor=none;align=center;verticalAlign=middle;whiteSpace=wrap;rounded=0;fontStyle=1" parent="1" vertex="1">
          <mxGeometry x="218.88" y="455.94" width="106.5" height="29.57" as="geometry" />
        </mxCell>
        <mxCell id="R7f8UiEShfywm73SlZXB-10" value="" style="sketch=0;points=[[0,0,0],[0.25,0,0],[0.5,0,0],[0.75,0,0],[1,0,0],[0,1,0],[0.25,1,0],[0.5,1,0],[0.75,1,0],[1,1,0],[0,0.25,0],[0,0.5,0],[0,0.75,0],[1,0.25,0],[1,0.5,0],[1,0.75,0]];outlineConnect=0;fontColor=#232F3E;gradientColor=#F78E04;gradientDirection=north;fillColor=#D05C17;strokeColor=#ffffff;dashed=0;verticalLabelPosition=bottom;verticalAlign=top;align=center;html=1;fontSize=12;fontStyle=0;aspect=fixed;shape=mxgraph.aws4.resourceIcon;resIcon=mxgraph.aws4.lambda;" parent="1" vertex="1">
          <mxGeometry x="344.75" y="372.72" width="78" height="78" as="geometry" />
        </mxCell>
        <mxCell id="R7f8UiEShfywm73SlZXB-11" value="&lt;font style=&quot;font-size: 14px;&quot;&gt;&lt;span&gt;AWS Lambda&lt;/span&gt;&lt;/font&gt;&lt;div&gt;&lt;font style=&quot;font-size: 14px;&quot;&gt;&lt;span&gt;WhatsApp Input&lt;/span&gt;&lt;/font&gt;&lt;/div&gt;" style="text;html=1;strokeColor=none;fillColor=none;align=center;verticalAlign=middle;whiteSpace=wrap;rounded=0;fontStyle=1" parent="1" vertex="1">
          <mxGeometry x="325.38" y="450.72" width="110.5" height="36.43" as="geometry" />
        </mxCell>
        <mxCell id="R7f8UiEShfywm73SlZXB-15" value="GENERATIVE AI CHATBOT" style="text;html=1;align=center;verticalAlign=middle;whiteSpace=wrap;rounded=0;fontSize=18;fontStyle=1" parent="1" vertex="1">
          <mxGeometry x="457.85" y="324.43" width="254.3" height="25" as="geometry" />
        </mxCell>
        <mxCell id="R7f8UiEShfywm73SlZXB-16" value="" style="sketch=0;points=[[0,0,0],[0.25,0,0],[0.5,0,0],[0.75,0,0],[1,0,0],[0,1,0],[0.25,1,0],[0.5,1,0],[0.75,1,0],[1,1,0],[0,0.25,0],[0,0.5,0],[0,0.75,0],[1,0.25,0],[1,0.5,0],[1,0.75,0]];outlineConnect=0;fontColor=#232F3E;fillColor=#01A88D;strokeColor=#ffffff;dashed=0;verticalLabelPosition=bottom;verticalAlign=top;align=center;html=1;fontSize=12;fontStyle=0;aspect=fixed;shape=mxgraph.aws4.resourceIcon;resIcon=mxgraph.aws4.bedrock;" parent="1" vertex="1">
          <mxGeometry x="738.37" y="391.65000000000003" width="78" height="78" as="geometry" />
        </mxCell>
        <mxCell id="R7f8UiEShfywm73SlZXB-17" value="&lt;span style=&quot;font-size: 14px;&quot;&gt;Bedrock Agent&lt;/span&gt;" style="text;html=1;strokeColor=none;fillColor=none;align=center;verticalAlign=middle;whiteSpace=wrap;rounded=0;fontStyle=1" parent="1" vertex="1">
          <mxGeometry x="735.37" y="472.3700000000001" width="86" height="37" as="geometry" />
        </mxCell>
        <mxCell id="R7f8UiEShfywm73SlZXB-18" value="&lt;span style=&quot;font-size: 14px;&quot;&gt;OpenSearch&lt;/span&gt;&lt;div&gt;&lt;span style=&quot;font-size: 14px;&quot;&gt;Vector DB&lt;/span&gt;&lt;/div&gt;" style="text;html=1;strokeColor=none;fillColor=none;align=center;verticalAlign=middle;whiteSpace=wrap;rounded=0;fontStyle=1" parent="1" vertex="1">
          <mxGeometry x="842.37" y="607.6700000000002" width="101" height="40" as="geometry" />
        </mxCell>
        <mxCell id="R7f8UiEShfywm73SlZXB-19" value="" style="rounded=1;whiteSpace=wrap;html=1;fillColor=#d5e8d4;strokeColor=#82b366;arcSize=5;" parent="1" vertex="1">
          <mxGeometry x="25" y="380" width="155" height="50" as="geometry" />
        </mxCell>
        <mxCell id="R7f8UiEShfywm73SlZXB-20" value="&lt;div&gt;&lt;font style=&quot;font-size: 14px;&quot;&gt;&lt;span&gt;WhatsApp&lt;/span&gt;&lt;/font&gt;&lt;/div&gt;&lt;div&gt;&lt;span style=&quot;background-color: initial; font-size: 14px;&quot;&gt;WebHook&lt;/span&gt;&lt;/div&gt;" style="text;html=1;strokeColor=none;fillColor=none;align=center;verticalAlign=middle;whiteSpace=wrap;rounded=0;fontStyle=1" parent="1" vertex="1">
          <mxGeometry x="46.75" y="391.6499999999999" width="106.5" height="29.57" as="geometry" />
        </mxCell>
        <mxCell id="R7f8UiEShfywm73SlZXB-21" value="" style="rounded=1;whiteSpace=wrap;html=1;fillColor=#d5e8d4;strokeColor=#82b366;arcSize=5;" parent="1" vertex="1">
          <mxGeometry x="22.5" y="520" width="155" height="50" as="geometry" />
        </mxCell>
        <mxCell id="R7f8UiEShfywm73SlZXB-22" value="&lt;div&gt;&lt;font style=&quot;font-size: 14px;&quot;&gt;&lt;span&gt;WhatsApp&lt;/span&gt;&lt;/font&gt;&lt;/div&gt;&lt;div&gt;&lt;span style=&quot;background-color: initial; font-size: 14px;&quot;&gt;API&lt;/span&gt;&lt;/div&gt;" style="text;html=1;strokeColor=none;fillColor=none;align=center;verticalAlign=middle;whiteSpace=wrap;rounded=0;fontStyle=1" parent="1" vertex="1">
          <mxGeometry x="44.25" y="528.89" width="106.5" height="29.57" as="geometry" />
        </mxCell>
        <mxCell id="R7f8UiEShfywm73SlZXB-42" style="edgeStyle=orthogonalEdgeStyle;rounded=0;orthogonalLoop=1;jettySize=auto;html=1;entryX=1;entryY=0.5;entryDx=0;entryDy=0;" parent="1" source="R7f8UiEShfywm73SlZXB-24" edge="1">
          <mxGeometry relative="1" as="geometry">
            <mxPoint x="159.75" y="548.885" as="targetPoint" />
          </mxGeometry>
        </mxCell>
        <mxCell id="R7f8UiEShfywm73SlZXB-24" value="" style="sketch=0;points=[[0,0,0],[0.25,0,0],[0.5,0,0],[0.75,0,0],[1,0,0],[0,1,0],[0.25,1,0],[0.5,1,0],[0.75,1,0],[1,1,0],[0,0.25,0],[0,0.5,0],[0,0.75,0],[1,0.25,0],[1,0.5,0],[1,0.75,0]];outlineConnect=0;fontColor=#232F3E;fillColor=#E7157B;strokeColor=#ffffff;dashed=0;verticalLabelPosition=bottom;verticalAlign=top;align=center;html=1;fontSize=12;fontStyle=0;aspect=fixed;shape=mxgraph.aws4.resourceIcon;resIcon=mxgraph.aws4.step_functions;" parent="1" vertex="1">
          <mxGeometry x="235.75" y="510" width="78" height="78" as="geometry" />
        </mxCell>
        <mxCell id="R7f8UiEShfywm73SlZXB-67" style="edgeStyle=orthogonalEdgeStyle;rounded=0;orthogonalLoop=1;jettySize=auto;html=1;exitX=0.5;exitY=1;exitDx=0;exitDy=0;entryX=0.5;entryY=1;entryDx=0;entryDy=0;" parent="1" source="R7f8UiEShfywm73SlZXB-25" target="R7f8UiEShfywm73SlZXB-47" edge="1">
          <mxGeometry relative="1" as="geometry">
            <Array as="points">
              <mxPoint x="283" y="680" />
              <mxPoint x="769" y="680" />
            </Array>
          </mxGeometry>
        </mxCell>
        <mxCell id="R7f8UiEShfywm73SlZXB-25" value="&lt;span style=&quot;font-size: 14px;&quot;&gt;Step Functions&lt;/span&gt;&lt;div&gt;&lt;span style=&quot;font-size: 14px;&quot;&gt;Process Message&lt;/span&gt;&lt;/div&gt;" style="text;html=1;strokeColor=none;fillColor=none;align=center;verticalAlign=middle;whiteSpace=wrap;rounded=0;fontStyle=1" parent="1" vertex="1">
          <mxGeometry x="215" y="592.17" width="136" height="36.43" as="geometry" />
        </mxCell>
        <mxCell id="R7f8UiEShfywm73SlZXB-27" style="edgeStyle=orthogonalEdgeStyle;rounded=0;orthogonalLoop=1;jettySize=auto;html=1;entryX=0;entryY=0.5;entryDx=0;entryDy=0;entryPerimeter=0;" parent="1" target="R7f8UiEShfywm73SlZXB-8" edge="1">
          <mxGeometry relative="1" as="geometry">
            <mxPoint x="180" y="410.2129411764705" as="sourcePoint" />
          </mxGeometry>
        </mxCell>
        <mxCell id="R7f8UiEShfywm73SlZXB-55" style="edgeStyle=orthogonalEdgeStyle;rounded=0;orthogonalLoop=1;jettySize=auto;html=1;" parent="1" source="R7f8UiEShfywm73SlZXB-28" target="R7f8UiEShfywm73SlZXB-31" edge="1">
          <mxGeometry relative="1" as="geometry" />
        </mxCell>
        <mxCell id="R7f8UiEShfywm73SlZXB-28" value="&lt;font style=&quot;font-size: 14px;&quot;&gt;&lt;span&gt;DynamoDB&lt;/span&gt;&lt;/font&gt;&lt;div&gt;&lt;font style=&quot;font-size: 14px;&quot;&gt;&lt;span&gt;messages&lt;/span&gt;&lt;/font&gt;&lt;/div&gt;" style="text;html=1;strokeColor=none;fillColor=none;align=center;verticalAlign=middle;whiteSpace=wrap;rounded=0;fontStyle=1" parent="1" vertex="1">
          <mxGeometry x="452.5" y="453.7200000000001" width="86.5" height="42.57" as="geometry" />
        </mxCell>
        <mxCell id="R7f8UiEShfywm73SlZXB-29" style="edgeStyle=orthogonalEdgeStyle;rounded=0;orthogonalLoop=1;jettySize=auto;html=1;exitX=1;exitY=0.5;exitDx=0;exitDy=0;exitPerimeter=0;entryX=0;entryY=0.5;entryDx=0;entryDy=0;entryPerimeter=0;" parent="1" source="R7f8UiEShfywm73SlZXB-8" target="R7f8UiEShfywm73SlZXB-10" edge="1">
          <mxGeometry relative="1" as="geometry" />
        </mxCell>
        <mxCell id="R7f8UiEShfywm73SlZXB-30" style="edgeStyle=orthogonalEdgeStyle;rounded=0;orthogonalLoop=1;jettySize=auto;html=1;exitX=1;exitY=0.5;exitDx=0;exitDy=0;exitPerimeter=0;entryX=0;entryY=0.5;entryDx=0;entryDy=0;entryPerimeter=0;" parent="1" source="R7f8UiEShfywm73SlZXB-10" edge="1">
          <mxGeometry relative="1" as="geometry">
            <mxPoint x="456.75" y="412.22" as="targetPoint" />
          </mxGeometry>
        </mxCell>
        <mxCell id="R7f8UiEShfywm73SlZXB-56" style="edgeStyle=orthogonalEdgeStyle;rounded=0;orthogonalLoop=1;jettySize=auto;html=1;" parent="1" source="R7f8UiEShfywm73SlZXB-31" target="R7f8UiEShfywm73SlZXB-39" edge="1">
          <mxGeometry relative="1" as="geometry" />
        </mxCell>
        <mxCell id="R7f8UiEShfywm73SlZXB-31" value="" style="sketch=0;outlineConnect=0;fontColor=#232F3E;gradientColor=none;fillColor=#C925D1;strokeColor=none;dashed=0;verticalLabelPosition=bottom;verticalAlign=top;align=center;html=1;fontSize=12;fontStyle=0;aspect=fixed;pointerEvents=1;shape=mxgraph.aws4.dynamodb_stream;" parent="1" vertex="1">
          <mxGeometry x="470.75" y="523.72" width="50" height="50" as="geometry" />
        </mxCell>
        <mxCell id="R7f8UiEShfywm73SlZXB-32" value="&lt;font style=&quot;font-size: 14px;&quot;&gt;&lt;span&gt;DynamoDB&lt;/span&gt;&lt;/font&gt;&lt;div&gt;&lt;span style=&quot;font-size: 14px;&quot;&gt;streams&lt;/span&gt;&lt;/div&gt;" style="text;html=1;strokeColor=none;fillColor=none;align=center;verticalAlign=middle;whiteSpace=wrap;rounded=0;fontStyle=1" parent="1" vertex="1">
          <mxGeometry x="452.5" y="581.0800000000002" width="86.5" height="42.57" as="geometry" />
        </mxCell>
        <mxCell id="R7f8UiEShfywm73SlZXB-36" value="&lt;span style=&quot;font-size: 14px;&quot;&gt;EB Pipe&lt;/span&gt;" style="text;html=1;strokeColor=none;fillColor=none;align=center;verticalAlign=middle;whiteSpace=wrap;rounded=0;fontStyle=1" parent="1" vertex="1">
          <mxGeometry x="352.38" y="562.1500000000001" width="86.5" height="42.57" as="geometry" />
        </mxCell>
        <mxCell id="R7f8UiEShfywm73SlZXB-39" value="" style="sketch=0;outlineConnect=0;fontColor=#232F3E;gradientColor=none;fillColor=#E7157B;strokeColor=none;dashed=0;verticalLabelPosition=bottom;verticalAlign=top;align=center;html=1;fontSize=12;fontStyle=0;aspect=fixed;pointerEvents=1;shape=mxgraph.aws4.eventbridge_pipes;" parent="1" vertex="1">
          <mxGeometry x="372.24" y="528.5" width="40.78" height="40.78" as="geometry" />
        </mxCell>
        <mxCell id="R7f8UiEShfywm73SlZXB-43" value="" style="shape=image;verticalLabelPosition=bottom;labelBackgroundColor=default;verticalAlign=top;aspect=fixed;imageAspect=0;image=https://static.vecteezy.com/system/resources/previews/016/716/480/non_2x/whatsapp-icon-free-png.png;" parent="1" vertex="1">
          <mxGeometry x="67.1" y="439.21" width="70.79" height="70.79" as="geometry" />
        </mxCell>
        <mxCell id="R7f8UiEShfywm73SlZXB-51" style="edgeStyle=orthogonalEdgeStyle;rounded=0;orthogonalLoop=1;jettySize=auto;html=1;exitX=1;exitY=0.5;exitDx=0;exitDy=0;exitPerimeter=0;entryX=0;entryY=0.5;entryDx=0;entryDy=0;entryPerimeter=0;startArrow=classic;startFill=1;" parent="1" source="R7f8UiEShfywm73SlZXB-1" target="R7f8UiEShfywm73SlZXB-2" edge="1">
          <mxGeometry relative="1" as="geometry" />
        </mxCell>
        <mxCell id="R7f8UiEShfywm73SlZXB-57" style="edgeStyle=orthogonalEdgeStyle;rounded=0;orthogonalLoop=1;jettySize=auto;html=1;entryX=1;entryY=0.5;entryDx=0;entryDy=0;entryPerimeter=0;" parent="1" source="R7f8UiEShfywm73SlZXB-39" target="R7f8UiEShfywm73SlZXB-24" edge="1">
          <mxGeometry relative="1" as="geometry" />
        </mxCell>
        <mxCell id="R7f8UiEShfywm73SlZXB-59" style="edgeStyle=orthogonalEdgeStyle;rounded=0;orthogonalLoop=1;jettySize=auto;html=1;exitX=1;exitY=0.5;exitDx=0;exitDy=0;exitPerimeter=0;entryX=0;entryY=0.5;entryDx=0;entryDy=0;entryPerimeter=0;" parent="1" source="R7f8UiEShfywm73SlZXB-5" target="R7f8UiEShfywm73SlZXB-1" edge="1">
          <mxGeometry relative="1" as="geometry" />
        </mxCell>
        <mxCell id="R7f8UiEShfywm73SlZXB-62" style="edgeStyle=orthogonalEdgeStyle;rounded=0;orthogonalLoop=1;jettySize=auto;html=1;entryX=0;entryY=0.5;entryDx=0;entryDy=0;entryPerimeter=0;" parent="1" source="R7f8UiEShfywm73SlZXB-16" target="R7f8UiEShfywm73SlZXB-3" edge="1">
          <mxGeometry relative="1" as="geometry" />
        </mxCell>
        <mxCell id="R7f8UiEShfywm73SlZXB-64" style="edgeStyle=orthogonalEdgeStyle;rounded=0;orthogonalLoop=1;jettySize=auto;html=1;exitX=0.5;exitY=1;exitDx=0;exitDy=0;entryX=0.5;entryY=0;entryDx=0;entryDy=0;entryPerimeter=0;" parent="1" source="R7f8UiEShfywm73SlZXB-17" target="R7f8UiEShfywm73SlZXB-1" edge="1">
          <mxGeometry relative="1" as="geometry" />
        </mxCell>
        <mxCell id="R7f8UiEShfywm73SlZXB-65" value="" style="sketch=0;points=[[0,0,0],[0.25,0,0],[0.5,0,0],[0.75,0,0],[1,0,0],[0,1,0],[0.25,1,0],[0.5,1,0],[0.75,1,0],[1,1,0],[0,0.25,0],[0,0.5,0],[0,0.75,0],[1,0.25,0],[1,0.5,0],[1,0.75,0]];outlineConnect=0;fontColor=#232F3E;fillColor=#01A88D;strokeColor=#ffffff;dashed=0;verticalLabelPosition=bottom;verticalAlign=top;align=center;html=1;fontSize=12;fontStyle=0;aspect=fixed;shape=mxgraph.aws4.resourceIcon;resIcon=mxgraph.aws4.bedrock;" parent="1" vertex="1">
          <mxGeometry x="616.88" y="391.65000000000003" width="78" height="78" as="geometry" />
        </mxCell>
        <mxCell id="R7f8UiEShfywm73SlZXB-66" value="&lt;span style=&quot;font-size: 14px;&quot;&gt;Amazon&lt;/span&gt;&lt;div&gt;&lt;span style=&quot;font-size: 14px;&quot;&gt;Bedrock&lt;/span&gt;&lt;/div&gt;" style="text;html=1;strokeColor=none;fillColor=none;align=center;verticalAlign=middle;whiteSpace=wrap;rounded=0;fontStyle=1" parent="1" vertex="1">
          <mxGeometry x="613.5" y="474.09000000000015" width="86" height="37" as="geometry" />
        </mxCell>
        <mxCell id="R7f8UiEShfywm73SlZXB-68" value="&lt;div&gt;&lt;span style=&quot;font-size: 14px;&quot;&gt;Sync call to Bedrock from State Machine&lt;/span&gt;&lt;/div&gt;" style="text;html=1;strokeColor=none;fillColor=none;align=center;verticalAlign=middle;whiteSpace=wrap;rounded=0;fontStyle=1" parent="1" vertex="1">
          <mxGeometry x="280.81" y="650" width="293.38" height="27.43" as="geometry" />
        </mxCell>
        <mxCell id="R7f8UiEShfywm73SlZXB-72" value="&lt;div&gt;&lt;span style=&quot;font-size: 14px;&quot;&gt;Phone&lt;/span&gt;&lt;/div&gt;" style="text;html=1;strokeColor=none;fillColor=none;align=center;verticalAlign=middle;whiteSpace=wrap;rounded=0;fontStyle=1" parent="1" vertex="1">
          <mxGeometry x="65" y="304.43" width="59.19" height="20" as="geometry" />
        </mxCell>
        <mxCell id="R7f8UiEShfywm73SlZXB-73" style="edgeStyle=orthogonalEdgeStyle;rounded=0;orthogonalLoop=1;jettySize=auto;html=1;exitX=0.5;exitY=1;exitDx=0;exitDy=0;entryX=0.303;entryY=0.009;entryDx=0;entryDy=0;entryPerimeter=0;" parent="1" edge="1">
          <mxGeometry relative="1" as="geometry">
            <mxPoint x="67" y="199.61" as="sourcePoint" />
            <mxPoint x="67.05500000000006" y="332.6099999999999" as="targetPoint" />
          </mxGeometry>
        </mxCell>
        <mxCell id="R7f8UiEShfywm73SlZXB-74" value="&lt;div&gt;&lt;span style=&quot;font-size: 14px;&quot;&gt;Browser&lt;/span&gt;&lt;/div&gt;" style="text;html=1;strokeColor=none;fillColor=none;align=center;verticalAlign=middle;whiteSpace=wrap;rounded=0;fontStyle=1" parent="1" vertex="1">
          <mxGeometry x="137.89" y="153.43" width="59.19" height="20" as="geometry" />
        </mxCell>
        <mxCell id="HJEQIFtdUdjZ4KcTeIV0-1" value="" style="sketch=0;points=[[0,0,0],[0.25,0,0],[0.5,0,0],[0.75,0,0],[1,0,0],[0,1,0],[0.25,1,0],[0.5,1,0],[0.75,1,0],[1,1,0],[0,0.25,0],[0,0.5,0],[0,0.75,0],[1,0.25,0],[1,0.5,0],[1,0.75,0]];outlineConnect=0;fontColor=#232F3E;fillColor=#C925D1;strokeColor=#ffffff;dashed=0;verticalLabelPosition=bottom;verticalAlign=top;align=center;html=1;fontSize=12;fontStyle=0;aspect=fixed;shape=mxgraph.aws4.resourceIcon;resIcon=mxgraph.aws4.dynamodb;" parent="1" vertex="1">
          <mxGeometry x="874" y="190.4" width="78" height="78" as="geometry" />
        </mxCell>
        <mxCell id="HJEQIFtdUdjZ4KcTeIV0-3" value="" style="sketch=0;points=[[0,0,0],[0.25,0,0],[0.5,0,0],[0.75,0,0],[1,0,0],[0,1,0],[0.25,1,0],[0.5,1,0],[0.75,1,0],[1,1,0],[0,0.25,0],[0,0.5,0],[0,0.75,0],[1,0.25,0],[1,0.5,0],[1,0.75,0]];outlineConnect=0;fontColor=#232F3E;fillColor=#C925D1;strokeColor=#ffffff;dashed=0;verticalLabelPosition=bottom;verticalAlign=top;align=center;html=1;fontSize=12;fontStyle=0;aspect=fixed;shape=mxgraph.aws4.resourceIcon;resIcon=mxgraph.aws4.dynamodb;" parent="1" vertex="1">
          <mxGeometry x="456.75" y="372.72" width="78" height="78" as="geometry" />
        </mxCell>
        <mxCell id="cjVx0-i_NF1GriTj0m2--1" value="" style="sketch=0;points=[[0,0,0],[0.25,0,0],[0.5,0,0],[0.75,0,0],[1,0,0],[0,1,0],[0.25,1,0],[0.5,1,0],[0.75,1,0],[1,1,0],[0,0.25,0],[0,0.5,0],[0,0.75,0],[1,0.25,0],[1,0.5,0],[1,0.75,0]];outlineConnect=0;fontColor=#232F3E;fillColor=#7AA116;strokeColor=#ffffff;dashed=0;verticalLabelPosition=bottom;verticalAlign=top;align=center;html=1;fontSize=12;fontStyle=0;aspect=fixed;shape=mxgraph.aws4.resourceIcon;resIcon=mxgraph.aws4.s3;" vertex="1" parent="1">
          <mxGeometry x="874" y="106.43" width="78" height="78" as="geometry" />
        </mxCell>
        <mxCell id="cjVx0-i_NF1GriTj0m2--2" value="&lt;font style=&quot;font-size: 14px;&quot;&gt;&lt;span&gt;S3 Recipes&lt;/span&gt;&lt;/font&gt;&lt;div&gt;&lt;font style=&quot;font-size: 14px;&quot;&gt;&lt;span&gt;Images&lt;/span&gt;&lt;/font&gt;&lt;/div&gt;" style="text;html=1;strokeColor=none;fillColor=none;align=center;verticalAlign=middle;whiteSpace=wrap;rounded=0;fontStyle=1" vertex="1" parent="1">
          <mxGeometry x="859.75" y="78" width="101" height="27.43" as="geometry" />
        </mxCell>
        <mxCell id="cjVx0-i_NF1GriTj0m2--6" style="edgeStyle=orthogonalEdgeStyle;rounded=0;orthogonalLoop=1;jettySize=auto;html=1;exitX=1;exitY=0.25;exitDx=0;exitDy=0;exitPerimeter=0;entryX=0;entryY=0.25;entryDx=0;entryDy=0;entryPerimeter=0;" edge="1" parent="1" source="jlDc-I086ySutYxGqEFr-2" target="cjVx0-i_NF1GriTj0m2--1">
          <mxGeometry relative="1" as="geometry" />
        </mxCell>
        <mxCell id="cjVx0-i_NF1GriTj0m2--7" style="edgeStyle=orthogonalEdgeStyle;rounded=0;orthogonalLoop=1;jettySize=auto;html=1;exitX=1;exitY=0.75;exitDx=0;exitDy=0;exitPerimeter=0;entryX=0;entryY=0.25;entryDx=0;entryDy=0;entryPerimeter=0;" edge="1" parent="1" source="jlDc-I086ySutYxGqEFr-2" target="HJEQIFtdUdjZ4KcTeIV0-1">
          <mxGeometry relative="1" as="geometry">
            <Array as="points">
              <mxPoint x="860" y="165" />
              <mxPoint x="860" y="210" />
            </Array>
          </mxGeometry>
        </mxCell>
      </root>
    </mxGraphModel>
  </diagram>
</mxfile>
